<svg width="20" height="20" viewBox="0 0 20 20" fill="none" xmlns="http://www.w3.org/2000/svg">
<path d="M3.66394 15.9818C3.22338 15.9818 2.84241 15.8211 2.52102 15.4997C2.19963 15.1783 2.03894 14.7974 2.03894 14.3568V5.64307C2.03894 5.20251 2.19963 4.82154 2.52102 4.50015C2.84241 4.17876 3.22338 4.01807 3.66394 4.01807H16.336C16.7863 4.01807 17.1697 4.17876 17.4862 4.50015C17.8028 4.82154 17.961 5.20251 17.961 5.64307V14.3568C17.961 14.7974 17.8028 15.1783 17.4862 15.4997C17.1697 15.8211 16.7863 15.9818 16.336 15.9818H3.66394ZM16.336 7.46411L10.4294 10.8881C10.3571 10.9295 10.2866 10.9622 10.2177 10.9864C10.1487 11.0106 10.0761 11.0226 9.99998 11.0226C9.9172 11.0226 9.84811 11.0106 9.79269 10.9864C9.73727 10.9622 9.67075 10.9315 9.59311 10.8943L3.66394 7.46411V14.3568H16.336V7.46411ZM9.99998 9.30973L16.2944 5.64307H3.72644L9.99998 9.30973ZM3.66394 7.19536V7.39223V6.27202V6.27952V5.64307V6.27932V6.26244V7.39411V7.19723V14.3568V7.19536Z" fill="#ADB8D0"/>
</svg>
