<svg width="302" height="128" viewBox="0 0 302 128" fill="none" xmlns="http://www.w3.org/2000/svg">
<g clip-path="url(#clip0_15672_30028)">
<rect opacity="0.12" x="-0.333374" width="302" height="128" rx="64" fill="#FFDB3C"/>
<rect opacity="0.24" x="15.6666" y="14" width="270" height="100" rx="50" fill="#FFDB3C"/>
<rect x="31.6666" y="29" width="238" height="70" rx="35" fill="#FFDB3C"/>
<rect x="32.7339" y="30.0673" width="235.865" height="67.8654" rx="33.9327" stroke="white" stroke-opacity="0.5" stroke-width="2.13462"/>
<path d="M226.961 70.2821C226.961 72.0429 226.733 73.3076 226.276 74.0761C225.818 74.8446 225.123 75.3261 224.189 75.5207C223.265 75.7153 221.786 75.8125 219.753 75.8125H212.647V52.1733H218.804V60.272H219.753C221.65 60.272 223.085 60.3838 224.058 60.6076C225.03 60.8313 225.755 61.3274 226.232 62.096C226.718 62.8548 226.961 64.0513 226.961 65.6856V70.2821ZM220.804 69.5671V66.1526C220.804 65.1603 220.701 64.5572 220.497 64.3431C220.303 64.1291 219.738 64.0075 218.804 63.9783V71.7413C219.583 71.7413 220.108 71.6441 220.38 71.4495C220.663 71.2452 220.804 70.6178 220.804 69.5671Z" fill="#B07C29"/>
<path d="M211.246 52.188V56.9158H207.598V75.8126H201.454V56.9158H197.821V52.188H211.246Z" fill="#B07C29"/>
<path d="M196.42 75.8125H191.284V65.0582L188.088 75.8125H182.704V52.1733H187.84V62.8402L191.284 52.1733H196.42V75.8125Z" fill="#B07C29"/>
<path d="M180.223 52.188V75.8126H174.08V65.89H172.241V75.8126H166.098V52.188H172.241V60.6368H174.08V52.188H180.223Z" fill="#B07C29"/>
<path d="M163.646 75.8125H157.488V56.9012H155.694V70.2821C155.694 72.0429 155.465 73.3076 155.008 74.0761C154.56 74.8446 153.874 75.3261 152.95 75.5207C152.026 75.7153 150.552 75.8125 148.529 75.8125H147.566V71.7413C148.315 71.7413 148.83 71.6489 149.113 71.4641C149.395 71.2793 149.536 70.6469 149.536 69.5671V52.1733H163.646V75.8125Z" fill="#B07C29"/>
<path d="M146.34 66.0211C146.34 68.3947 146.282 70.0777 146.165 71.07C146.058 72.0525 145.708 72.9523 145.114 73.7695C144.531 74.5867 143.738 75.2141 142.736 75.6519C141.734 76.0896 140.566 76.3085 139.234 76.3085C137.969 76.3085 136.831 76.1042 135.819 75.6957C134.817 75.2773 134.01 74.6547 133.397 73.8279C132.784 73.001 132.419 72.1011 132.302 71.1283C132.186 70.1555 132.127 68.4531 132.127 66.0211V61.9791C132.127 59.6054 132.181 57.9273 132.288 56.9448C132.405 55.9525 132.755 55.0478 133.339 54.2307C133.932 53.4135 134.73 52.7861 135.732 52.3483C136.734 51.9105 137.901 51.6917 139.234 51.6917C140.498 51.6917 141.632 51.9008 142.634 52.3191C143.645 52.7277 144.458 53.3454 145.071 54.1723C145.683 54.9992 146.048 55.899 146.165 56.8718C146.282 57.8447 146.34 59.5471 146.34 61.9791V66.0211ZM140.197 58.2581C140.197 57.1588 140.134 56.4584 140.007 56.1568C139.89 55.8455 139.642 55.6899 139.263 55.6899C138.942 55.6899 138.694 55.8163 138.519 56.0693C138.353 56.3125 138.271 57.0421 138.271 58.2581V69.2897C138.271 70.6614 138.324 71.5077 138.431 71.8287C138.548 72.1498 138.811 72.3103 139.219 72.3103C139.637 72.3103 139.905 72.1255 140.022 71.7558C140.138 71.3861 140.197 70.5057 140.197 69.1146V58.2581Z" fill="#B07C29"/>
<path d="M129.836 75.8125H123.679V56.9012H121.855V75.8125H115.697V52.1733H129.836V75.8125Z" fill="#B07C29"/>
<path d="M105.205 70.2821C105.205 72.0429 104.976 73.3076 104.519 74.0761C104.062 74.8446 103.366 75.3261 102.432 75.5207C101.508 75.7153 100.03 75.8125 97.9965 75.8125H90.8901V52.1733H97.048V60.272H97.9965C99.8935 60.272 101.328 60.3838 102.301 60.6076C103.274 60.8313 103.999 61.3274 104.475 62.096C104.962 62.8548 105.205 64.0513 105.205 65.6856V70.2821ZM99.0471 69.5671V66.1526C99.0471 65.1603 98.945 64.5572 98.7407 64.3431C98.5461 64.1291 97.9819 64.0075 97.048 63.9783V71.7413C97.8262 71.7413 98.3516 71.6441 98.6239 71.4495C98.9061 71.2452 99.0471 70.6178 99.0471 69.5671ZM113.45 75.8125H107.292V52.1733H113.45V75.8125Z" fill="#B07C29"/>
<path d="M74.3718 52.188H80.5005C82.4364 52.188 83.9005 52.3388 84.8927 52.6403C85.8947 52.9419 86.7021 53.5548 87.315 54.4789C87.9279 55.3934 88.2343 56.8721 88.2343 58.9149C88.2343 60.2963 88.0154 61.2594 87.5777 61.8042C87.1496 62.349 86.2984 62.7673 85.0241 63.0591C86.4444 63.3801 87.4074 63.9152 87.9133 64.6642C88.4192 65.4036 88.6721 66.5417 88.6721 68.0788V70.2676C88.6721 71.863 88.4872 73.045 88.1176 73.8135C87.7576 74.582 87.1788 75.1073 86.3811 75.3894C85.5834 75.6715 83.9491 75.8126 81.4782 75.8126H74.3718V52.188ZM80.5151 56.23V61.4832C80.7778 61.4734 80.982 61.4686 81.128 61.4686C81.7311 61.4686 82.1154 61.3226 82.2807 61.0308C82.4461 60.7292 82.5288 59.878 82.5288 58.4772C82.5288 57.7378 82.4607 57.2223 82.3245 56.9304C82.1883 56.6289 82.0084 56.4392 81.7846 56.3613C81.5706 56.2835 81.1474 56.2397 80.5151 56.23ZM80.5151 65.1604V71.7706C81.3809 71.7414 81.9305 71.6052 82.164 71.362C82.4072 71.1188 82.5288 70.5205 82.5288 69.5672V67.3638C82.5288 66.3521 82.4218 65.7392 82.2078 65.5252C81.9938 65.3111 81.4295 65.1895 80.5151 65.1604Z" fill="#B07C29"/>
<path d="M276.784 101.604C277.627 102.559 278.617 106.923 276.493 108.737C274.369 110.551 270.897 110.645 270.897 110.645L261.316 101.194L254.827 114.396L239.667 69.9299L280.109 89.8072L268.872 93.6383C269.784 94.5077 275.713 100.392 276.784 101.604Z" fill="white"/>
<path fill-rule="evenodd" clip-rule="evenodd" d="M244.484 75.4082L255.294 107.116L260.519 96.4864L271.629 107.446C271.629 107.446 273.61 107.407 274.271 106.545C274.932 105.683 275.391 104.245 274.691 103.452C271.388 99.7108 263.581 92.4928 263.581 92.4928L272.829 89.3398L244.484 75.4082Z" fill="black"/>
</g>
<defs>
<clipPath id="clip0_15672_30028">
<rect width="301.333" height="128" rx="32" fill="white"/>
</clipPath>
</defs>
</svg>
