<svg width="302" height="128" viewBox="0 0 302 128" fill="none" xmlns="http://www.w3.org/2000/svg">
<rect width="301.333" height="128" rx="64" fill="url(#paint0_linear_15672_30037)"/>
<rect x="18.6666" y="24" width="264" height="80" rx="40" fill="url(#paint1_linear_15672_30037)" fill-opacity="0.52"/>
<rect x="18.6666" y="24" width="80" height="80" rx="40" fill="#FFDB3C"/>
<rect x="19.6666" y="25" width="78" height="78" rx="39" stroke="white" stroke-opacity="0.5" stroke-width="2"/>
<path fill-rule="evenodd" clip-rule="evenodd" d="M57.6646 77.0329L49.2131 82.4461C48.3342 83.0088 47.1854 82.7204 46.647 81.8014C46.3841 81.3527 46.3057 80.812 46.4297 80.3019L47.738 74.9182C48.2102 72.9746 49.4823 71.3501 51.2113 70.4821L60.4315 65.8539C60.8615 65.6381 61.0426 65.099 60.8362 64.6496C60.6691 64.2855 60.2912 64.0818 59.9107 64.1507L49.6472 66.0085C47.5609 66.3861 45.4214 65.7838 43.7986 64.3618L40.5563 61.521C39.7664 60.8291 39.6627 59.5985 40.3247 58.7727C40.6466 58.371 41.1096 58.1216 41.6093 58.0807L51.5155 57.2702C52.2153 57.2129 52.8252 56.7499 53.0939 56.0719L56.9154 46.427C57.3099 45.4315 58.4016 44.9588 59.3536 45.3712C59.8108 45.5692 60.1741 45.949 60.3634 46.427L64.185 56.0719C64.4537 56.7499 65.0637 57.2129 65.7634 57.2702L75.7241 58.0852C76.7515 58.1693 77.5192 59.1082 77.4388 60.1825C77.4002 60.6992 77.1664 61.1786 76.7891 61.515L69.1926 68.2858C68.6578 68.7623 68.4246 69.5128 68.589 70.2271L70.9244 80.3702C71.1656 81.4179 70.5489 82.4714 69.5468 82.7236C69.0654 82.8448 68.5575 82.7609 68.1354 82.4905L59.6143 77.0329C59.016 76.6497 58.2628 76.6497 57.6646 77.0329Z" fill="#B07C29"/>
<circle cx="121.667" cy="64" r="3" fill="#FFDB3C"/>
<circle cx="150.667" cy="64" r="6" fill="#FFDB3C"/>
<circle cx="179.667" cy="64" r="3" fill="#FFDB3C"/>
<rect x="202.667" y="24" width="80" height="80" rx="40" fill="#299FE3"/>
<rect x="203.667" y="25" width="78" height="78" rx="39" stroke="white" stroke-opacity="0.09" stroke-width="2"/>
<path d="M242.667 42C248.404 42 253.056 46.5636 253.056 52.1932C253.056 55.991 250.938 59.3031 247.799 61.0568C255.109 63.2174 260.433 69.8735 260.433 77.75C260.433 77.9257 260.431 78.1009 260.425 78.2754C260.401 79.0783 260.389 79.4797 260.155 79.9088C259.97 80.2474 259.587 80.6113 259.237 80.7827C258.793 80.9999 258.305 81 257.329 81H228.004C227.028 81 226.54 80.9999 226.096 80.7827C225.746 80.6113 225.364 80.2474 225.179 79.9088C224.944 79.4797 224.932 79.0783 224.908 78.2754C224.903 78.1009 224.9 77.9257 224.9 77.75C224.9 69.8736 230.224 63.2175 237.534 61.0568C234.395 59.3031 232.278 55.9909 232.278 52.1932C232.278 46.5636 236.929 42 242.667 42Z" fill="white"/>
<defs>
<linearGradient id="paint0_linear_15672_30037" x1="0" y1="64" x2="554.515" y2="64" gradientUnits="userSpaceOnUse">
<stop stop-color="#5A698C" stop-opacity="0.08"/>
<stop offset="1" stop-color="#5A698C" stop-opacity="0.16"/>
</linearGradient>
<linearGradient id="paint1_linear_15672_30037" x1="150.667" y1="24" x2="150.667" y2="104" gradientUnits="userSpaceOnUse">
<stop stop-color="#171E2E"/>
<stop offset="1" stop-color="#1B2336"/>
</linearGradient>
</defs>
</svg>
