<svg width="147" height="48" viewBox="0 0 147 48" fill="none" xmlns="http://www.w3.org/2000/svg">
<path d="M21.7862 19.2608C17.0609 19.2608 16.9495 24.3495 16.9495 26.43C16.9495 28.5105 18.4007 32.0026 22.9394 32.0026C27.2176 32.0026 28.4069 29.9221 28.4069 27.8791C28.4069 25.8362 26.5101 19.2608 21.7862 19.2608Z" fill="#F3F3F3"/>
<path d="M40.2086 35.3762L37.7085 36.1997L30.6668 36.2344L26.3047 34.1842L22.8135 34.9702L14.691 32.8521L22.0134 37.0103L25.5364 36.4294L29.9145 38.4782L36.7623 37.9422L35.1303 40.199L29.5499 40.3911L17.5225 38.3048L14.0863 34.6783L5.27222 36.6794L8.924 31.0331L2.49143 26.7218L9.49984 24.3422L10.4417 24.0229L10.6472 23.3828L11.1796 21.7256L11.631 20.3169L11.9464 19.333C12.897 16.3711 14.9674 13.9164 17.6917 12.4716C21.0368 13.6578 29.2909 16.6587 29.2909 16.6587C29.2909 16.6587 29.0536 13.6231 28.7122 12.5381C28.5993 12.1812 28.4662 11.8316 28.3158 11.4906L29.8769 11.9341C30.9577 12.369 31.995 12.9339 32.9644 13.6274L35.8089 15.6632C37.3758 16.7858 38.4276 18.4878 38.73 20.3906L38.9702 21.9105C38.9962 22.0839 38.7589 22.1576 38.6822 22.0001C37.8633 20.314 37.3237 18.6525 36.0895 18.7796C35.5383 18.836 35.0825 19.2333 34.9089 19.7607C33.6487 23.6024 34.4112 25.5529 35.5267 27.6508L31.3092 29.0378L30.852 30.0174C32.9051 28.9699 36.1546 28.8095 36.1546 28.8095L41.1838 28.824L40.2057 35.3718L40.2086 35.3762ZM41.1896 27.4788L39.8267 27.4745L40.3172 22.0767V22.0695C40.3287 21.9496 40.3244 21.8282 40.307 21.7083L40.0654 20.1811C39.7095 17.9373 38.4464 15.8915 36.5974 14.568L33.7529 12.5323C32.7112 11.7868 31.5769 11.164 30.3833 10.6844L30.2487 10.6381L29.3083 10.3708C26.6953 4.94125 18.201 0.651609 17.7988 0.450781L16.8945 0L16.3216 9.04018L2.8922 8.6732L9.85141 16.4188L0 20.21L7.66092 23.5446L2.05593 25.446L1.73763 27.8444L7.06773 31.416L4.13646 35.9483L5.57027 37.9956L13.632 36.165L16.5386 39.2324L17.2881 39.634L29.3155 41.7203L29.5933 41.7391L35.1737 41.547L36.2226 40.9878L37.8547 38.731L37.1906 37.5506L37.7114 37.5477L38.1281 37.4798L40.6282 36.6563L41.5412 35.5741L42.5192 29.0262L41.1867 27.4774L41.1896 27.4788Z" fill="#F3F3F3"/>
<path d="M52.6195 37.305H52.2766C50.9947 37.305 49.9761 36.8253 49.2209 35.8645C48.4888 34.9052 48.1227 33.7161 48.1227 32.2987V17.1095C48.1227 15.3728 48.5467 13.9439 49.3931 12.8241C50.2394 11.7044 51.5908 11.1438 53.4442 11.1438H54.3716C55.448 11.1438 56.3508 11.3042 57.0844 11.6235C57.8164 11.9428 58.3547 12.4008 58.6976 12.9946C59.0636 13.5884 59.3154 14.2054 59.4528 14.8454C59.5903 15.4855 59.6583 16.2281 59.6583 17.0733V19.8849H55.1948V17.0387C55.1948 16.4665 55.1037 16.0562 54.9199 15.8048C54.7593 15.5534 54.4627 15.4277 54.0272 15.4277C53.272 15.4277 52.8944 15.9652 52.8944 17.0387V31.2325C52.8944 32.3291 53.3067 32.8781 54.1299 32.8781C55.0226 32.8781 55.4683 32.3522 55.4683 31.3004V25.8144H53.7856V21.5291H59.8623V36.9583H57.0815C56.8529 35.9989 56.6243 35.1869 56.3942 34.5238C56.1888 34.8893 56.0166 35.1754 55.8792 35.3805C55.7649 35.564 55.5478 35.8371 55.2266 36.2041C54.9069 36.5696 54.5177 36.8441 54.0591 37.0276C53.6236 37.2111 53.1432 37.3021 52.6166 37.3021L52.6195 37.305Z" fill="#F3F3F3"/>
<path d="M61.2006 11.453H70.7453V15.9449H65.7668V21.4987H69.6819V26.0932H65.7668V32.3666H70.9854V36.9611H61.2006V11.453Z" fill="#F3F3F3"/>
<path d="M71.5844 11.453H82.6743V15.9449H79.4117V36.9611H74.8455V15.9449H71.5844V11.453Z" fill="#F3F3F3"/>
<path d="M89.3296 15.3612H88.2315V21.4294H89.2617C89.674 21.4294 89.9822 21.3268 90.1891 21.1202C90.3945 20.8919 90.4987 20.4917 90.4987 19.9196V16.7309C90.4987 15.8163 90.1095 15.3597 89.3311 15.3597L89.3296 15.3612ZM89.3296 25.5442H88.2315V32.9156H89.5018C89.9373 32.9156 90.2339 32.8131 90.3945 32.6064C90.5783 32.3782 90.6694 31.9202 90.6694 31.2353V27.0873C90.6694 26.5382 90.5667 26.1496 90.3598 25.9213C90.176 25.6699 89.8331 25.5442 89.3296 25.5442ZM83.6653 36.9611V11.453H90.5667C92.1235 11.453 93.2447 11.7954 93.932 12.4817C94.6409 13.168 94.9969 14.344 94.9969 16.0128V19.4067C94.9969 20.366 94.7683 21.1664 94.3096 21.8065C93.8741 22.4234 93.3822 22.8121 92.8339 22.9724C94.5281 23.4521 95.3745 24.79 95.3745 26.9832V31.2353C95.3745 33.2234 95.0316 34.6754 94.3443 35.59C93.6571 36.5045 92.6053 36.9611 91.1859 36.9611H83.6668H83.6653Z" fill="#F3F3F3"/>
<path d="M103.681 31.27V17.2814C103.681 16.1616 103.28 15.6011 102.478 15.6011C101.677 15.6011 101.243 16.1616 101.243 17.2814V31.27C101.243 32.2756 101.667 32.7784 102.513 32.7784C103.291 32.7784 103.681 32.2756 103.681 31.27ZM108.454 17.6238V31.1328C108.454 33.0298 107.973 34.5382 107.011 35.6579C106.049 36.7776 104.722 37.3382 103.028 37.3382H101.998C100.19 37.3382 98.8165 36.8123 97.8775 35.7605C96.9385 34.6856 96.4697 33.1439 96.4697 31.1313V17.657C96.4697 13.3139 98.3014 11.1424 101.963 11.1424H102.993C106.632 11.1424 108.452 13.3024 108.452 17.6223L108.454 17.6238Z" fill="#F3F3F3"/>
<path d="M109.785 11.453H114.076L117.2 24.4808V11.453H121.251V36.9611H117.372L113.836 22.9724V36.9611H109.785V11.453Z" fill="#F3F3F3"/>
<path d="M122.659 31.0302V11.453H127.362V31.2021C127.362 32.2539 127.74 32.7798 128.495 32.7798C129.25 32.7798 129.593 32.2539 129.593 31.2021V11.453H134.297V31.0302C134.297 33.1107 133.828 34.687 132.889 35.7619C131.973 36.8137 130.68 37.3396 129.009 37.3396H127.876C124.396 37.3396 122.657 35.2374 122.657 31.0316L122.659 31.0302Z" fill="#F3F3F3"/>
<path d="M140.75 11.1438H141.677C143.439 11.1438 144.698 11.544 145.453 12.3445C146.209 13.1449 146.586 14.4134 146.586 16.1501V19.5786H142.192V16.3899C142.192 15.4985 141.861 15.0535 141.197 15.0535C140.533 15.0535 140.201 15.51 140.201 16.4246V17.0069C140.201 18.1497 140.67 19.2463 141.609 20.2982L144.219 23.2123C145.317 24.4462 146.051 25.5558 146.417 26.5383C146.806 27.4976 147 28.5726 147 29.7617V30.9623C147 32.9504 146.531 34.505 145.592 35.6247C144.676 36.7213 143.292 37.2703 141.438 37.2703H140.546C137.066 37.2703 135.327 35.5106 135.327 31.991V27.3965H139.825V31.4767C139.825 32.5054 140.214 33.0197 140.993 33.0197C141.771 33.0197 142.126 32.4028 142.126 31.1689V30.6892C142.126 29.7299 142.034 29.0089 141.851 28.5292C141.69 28.0264 141.289 27.4211 140.648 26.7117L138.005 23.7975C137.089 22.815 136.448 21.821 136.082 20.8139C135.739 19.8084 135.567 18.6424 135.567 17.3161V16.2195C135.567 14.5969 136.024 13.3515 136.94 12.4817C137.856 11.5903 139.126 11.1453 140.751 11.1453L140.75 11.1438Z" fill="#F3F3F3"/>
</svg>
