<svg width="20" height="20" viewBox="0 0 20 20" fill="none" xmlns="http://www.w3.org/2000/svg">
<path fill-rule="evenodd" clip-rule="evenodd" d="M3.2225 2.98973C3.19868 3.05178 3.33335 3.30815 3.57201 3.655C6.21212 7.49156 8.26375 10.4925 8.3258 10.6085C8.36811 10.6875 8.38713 10.793 8.36805 10.8428C8.3489 10.8925 7.18569 12.2668 5.7831 13.8966C4.38045 15.5264 3.23288 16.9072 3.23288 16.9651C3.23288 17.0515 3.32336 17.0737 3.7381 17.0893C4.21716 17.1073 4.25259 17.0988 4.42121 16.927C4.51903 16.8273 5.55503 15.6317 6.72344 14.27C7.89185 12.9083 8.88865 11.7786 8.93849 11.7594C8.98841 11.7403 9.07285 11.7591 9.1262 11.8013C9.17961 11.8434 10.0029 13.017 10.9557 14.4092C11.9085 15.8014 12.7349 16.977 12.7921 17.0216C12.9518 17.1463 16.6556 17.1376 16.7597 17.0124C16.819 16.9408 16.7576 16.809 16.4649 16.3796C16.2615 16.0812 15.0485 14.3133 13.7692 12.4509C12.4759 10.568 11.4433 9.00253 11.4433 8.92465C11.4433 8.77264 11.4383 8.77874 14.3568 5.38749C15.432 4.13808 16.304 3.07203 16.2946 3.01848C16.2813 2.94391 16.1605 2.91671 15.7776 2.90224C15.3641 2.88659 15.258 2.90366 15.1617 3.00135C15.0978 3.06632 14.1117 4.20656 12.9704 5.53534C11.8291 6.86406 10.8601 7.95121 10.817 7.95121C10.6844 7.95121 10.5877 7.82121 9.06798 5.59778C8.25687 4.4112 7.49372 3.3162 7.37209 3.16452L7.1509 2.88867H5.2061C3.5058 2.88867 3.25638 2.90139 3.2225 2.98973ZM6.71552 4.04072C6.80587 4.13892 7.34704 4.89097 7.91813 5.71201C9.12237 7.44327 11.663 11.0824 13.6504 13.9224C14.4123 15.0112 15.0378 15.9604 15.0405 16.0318C15.0452 16.1538 14.9981 16.1627 14.2654 16.1797C13.7064 16.1927 13.4554 16.1743 13.38 16.1148C13.2953 16.048 5.74708 5.28325 5.11186 4.32325C4.83316 3.90215 4.89119 3.86224 5.78245 3.86224C6.53794 3.86224 6.55397 3.86529 6.71552 4.04072Z" fill="#ADB8D0"/>
</svg>
