<svg width="20" height="20" viewBox="0 0 20 20" fill="none" xmlns="http://www.w3.org/2000/svg">
<path fill-rule="evenodd" clip-rule="evenodd" d="M8.74345 4.40356C5.71947 4.45774 4.10605 4.57794 3.55614 4.79002C2.95157 5.0232 2.49727 5.52489 2.32849 6.14576C1.98282 7.41725 1.89149 10.6993 2.14341 12.7956C2.23 13.516 2.32113 13.9156 2.46633 14.2115C2.57264 14.4281 2.67787 14.5751 2.85007 14.7473C3.13689 15.0341 3.46622 15.2114 3.87743 15.3003C4.71676 15.4818 7.12215 15.5992 9.99994 15.5992C12.9295 15.5992 15.3107 15.4811 16.1474 15.2942C16.4232 15.2326 16.6769 15.1217 16.8975 14.9664C17.0419 14.8648 17.2679 14.6385 17.3712 14.4921C17.4849 14.331 17.6054 14.079 17.6597 13.8889C18.018 12.6334 18.1125 9.30987 17.8509 7.16367C17.7356 6.21798 17.6126 5.8178 17.3226 5.44482C17.0395 5.08057 16.674 4.83974 16.225 4.72149C15.6805 4.57809 14.3405 4.47952 12.1302 4.42028C11.6513 4.40745 9.20152 4.39535 8.74345 4.40356ZM8.74345 7.79908C8.91184 7.89595 9.14432 8.03001 9.26008 8.09699C9.37584 8.16399 9.60546 8.29649 9.77033 8.39144C9.93521 8.4864 10.1591 8.61555 10.2678 8.67845C10.5873 8.86321 11.339 9.29719 11.7858 9.55488C12.0138 9.68637 12.2654 9.8315 12.3448 9.87739C12.5245 9.98127 12.5358 9.99146 12.5043 10.0217C12.4915 10.034 12.2371 10.1844 11.9389 10.356C11.6407 10.5275 11.1155 10.8303 10.7717 11.0289C9.57308 11.7212 8.99663 12.0542 8.71359 12.2176C8.48575 12.3492 8.42501 12.3792 8.41063 12.3673C8.39528 12.3545 8.39266 12.0075 8.39266 9.99612C8.39266 8.7002 8.39648 7.63607 8.40116 7.6314C8.40583 7.62672 8.41589 7.62291 8.42349 7.62293C8.43109 7.62296 8.57507 7.70222 8.74345 7.79908Z" fill="#ADB8D0"/>
</svg>
